<svg xmlns="http://www.w3.org/2000/svg" width="147" height="30" viewBox="0 0 147 30" fill="none" style="--grey-12:#171717"><path d="M9.97151 24.8406C10.8116 24.7919 11.6444 24.6285 12.4401 24.3557C14.0334 23.8096 15.4827 22.7861 16.2778 21.2788C17.0461 19.8225 17.0888 18.0415 16.4444 16.5329C15.5128 17.1914 14.38 17.5594 13.2387 17.5909C9.79526 17.6854 7.09778 14.7462 7.21162 11.3936C7.28439 9.25003 8.2827 7.16691 9.65054 5.54107C11.1576 3.74954 13.2708 2.49967 15.5705 2.02692C17.7345 1.58199 19.9846 1.82651 22.0007 2.72606C22.9555 3.15208 23.841 3.72223 24.6256 4.40678C24.6138 4.3058 24.4918 4.09566 24.3515 3.93477C23.2529 2.88697 21.9858 2.0143 20.6041 1.36439C20.0865 1.121 19.5544 0.908736 19.0109 0.728938C15.7176 -0.361141 12.1246 -0.224798 8.90285 1.11231C5.68124 2.44974 3.05053 4.89672 1.50289 7.99655C1.04132 8.92105 0.680797 9.89487 0.430103 10.8966C-0.453356 14.4281 -0.0560324 18.6976 2.37428 21.5798C3.29731 22.6745 4.465 23.5396 5.78417 24.1056C7.10335 24.6716 8.53711 24.9235 9.97151 24.8406Z" fill="var(--grey-12)"></path><path d="M14.9248 7.4122C16.4627 5.83057 18.4737 4.78599 20.658 4.43502L20.7013 4.42006C18.8281 3.995 16.8666 4.17663 15.1047 4.93857C13.7886 5.5075 12.6169 6.39092 11.7106 7.49751C10.8955 8.49261 10.3028 9.65708 10.1327 10.9388C10.0512 11.5525 10.0635 12.1777 10.1693 12.7877C10.41 14.1803 11.1248 15.448 12.194 16.3786L12.2059 16.3856C11.9789 15.3391 11.9534 14.2658 12.1245 13.221L12.1264 13.21C12.4055 11.0276 13.3871 8.99333 14.925 7.41169L14.9246 7.41188L14.9248 7.4122Z" fill="#B7EBE1"></path><path d="M12.1605 16.3492C12.1643 16.3661 12.168 16.383 12.1719 16.4002L12.1901 16.3911C12.1897 16.3853 12.1895 16.3797 12.1889 16.3741C12.1792 16.3657 12.1701 16.3575 12.1605 16.3492Z" fill="#909090"></path><path d="M12.1844 16.2817C11.9777 15.268 11.9595 14.231 12.1247 13.221L12.1266 13.21C12.6805 8.87797 16.9767 5.70893 21.2728 6.07066C24.0881 6.30754 26.4895 7.97518 28.0504 10.2633C28.7294 11.2589 29.2477 12.3614 29.5806 13.5178C30.3214 16.0927 30.0513 18.947 29.0037 21.4006C29.0037 21.4006 28.9782 20.7601 28.9599 20.48C28.9373 20.1283 28.9021 19.7779 28.8546 19.4288C28.7618 18.748 28.6219 18.0731 28.4364 17.411C27.6388 14.5679 26.0615 11.8603 23.2574 10.6183C22.8488 10.4373 22.4257 10.2901 21.9926 10.1788C19.3299 9.49312 16.5605 10.3476 14.3857 11.9208C13.7232 12.3999 13.1787 12.9517 12.7875 13.6763C12.3556 14.4764 12.1477 15.3764 12.1842 16.2822L12.1844 16.2817Z" fill="#83CDC0"></path><path d="M14.7243 11.6845L14.7236 11.6862C15.3694 11.3801 15.9642 11.1688 16.6289 11.0816C17.8314 10.9241 19.0816 11.2197 20.0966 11.8763C22.3322 13.3227 23.1341 16.3164 22.9332 18.8293C22.848 19.8951 22.5869 20.9459 22.1768 21.9331C21.6918 23.1008 20.9927 24.1785 20.1226 25.0996C18.6202 26.6901 16.6545 27.773 14.5014 28.1965C12.3487 28.6199 10.1165 28.3629 8.11795 27.4615C7.11164 27.0072 6.18967 26.4011 5.38245 25.6701C5.42822 25.8266 5.45809 25.9146 5.60668 26.0802C7.32976 27.7898 9.48681 29.0456 11.8848 29.6987C12.1654 29.7751 12.4484 29.8428 12.7329 29.902C15.1882 30.2209 17.7648 29.7689 20.0748 28.4427C21.7823 27.4624 23.147 26.1177 24.1261 24.5646C23.5069 26.2926 22.476 27.8814 21.0761 29.1714C22.7803 28.4921 24.3379 27.476 25.5556 26.0837C26.6342 24.8503 27.4236 23.375 27.8487 21.7964C28.4584 19.5338 28.3042 17.0963 27.4139 14.9275C27.3175 14.6928 27.217 14.4518 27.1114 14.208C26.2131 12.669 24.9618 11.3725 23.2577 10.6176C22.8491 10.4366 22.426 10.2894 21.9929 10.1781C19.4664 9.52764 16.8441 10.2637 14.7246 11.6843L14.7243 11.6845Z" fill="#12A594"></path><path d="M109.852 20.4255V5.5556H112.266V20.4255H109.852Z" fill="#12A594"></path><path d="M57.6094 9.9856C56.5043 9.52954 55.2794 9.45048 54.1247 9.7607C52.97 10.0709 51.95 10.7531 51.223 11.7014C50.496 12.6496 50.1026 13.811 50.1038 15.0054C50.105 16.1998 50.5007 17.3605 51.2296 18.3073C51.9585 19.2541 52.9798 19.9342 54.1351 20.2422C55.2905 20.5501 56.5152 20.4686 57.6194 20.0103C58.7237 19.552 59.6456 18.7426 60.2424 17.7076L58.1504 16.5042C57.8189 17.0792 57.3067 17.5289 56.6932 17.7835C56.0798 18.0381 55.3993 18.0834 54.7575 17.9123C54.1156 17.7413 53.5482 17.3634 53.1433 16.8374C52.7384 16.3114 52.5185 15.6666 52.5178 15.003C52.5172 14.3395 52.7357 13.6943 53.1396 13.1674C53.5435 12.6406 54.1102 12.2616 54.7517 12.0893C55.3932 11.9169 56.0737 11.9609 56.6876 12.2142C57.3016 12.4676 57.8147 12.9163 58.1474 13.4906L60.237 12.2831C59.6382 11.2493 58.7146 10.4417 57.6094 9.9856Z" fill="var(--grey-12)"></path><path d="M64.4876 13.9953C64.4876 12.8855 65.3883 11.9858 66.4993 11.9858H68.9134V9.57451H66.4993C64.055 9.57451 62.0735 11.5538 62.0735 13.9953V20.4255H64.4876V13.9953Z" fill="var(--grey-12)"></path><path fill-rule="evenodd" clip-rule="evenodd" d="M90.0883 9.62731C89.3819 9.52815 88.6629 9.56893 87.9724 9.74732C87.3814 9.89999 86.8211 10.1509 86.3148 10.4888V9.57451H83.9007V24.4444H86.3148V19.5112C86.4 19.5681 86.487 19.6227 86.5756 19.6748C87.1902 20.0364 87.87 20.2736 88.5764 20.3727C89.2828 20.4719 90.0017 20.4311 90.6923 20.2527C91.3829 20.0743 92.0315 19.7618 92.6012 19.333C93.1709 18.9043 93.6504 18.3676 94.0124 17.7537C94.3744 17.1398 94.6119 16.4607 94.7111 15.7551C94.8104 15.0496 94.7696 14.3314 94.591 13.6416C94.4124 12.9518 94.0995 12.3039 93.6702 11.7349C93.241 11.1658 92.7037 10.6869 92.0891 10.3252C91.4745 9.96362 90.7946 9.72647 90.0883 9.62731ZM88.5768 12.0819C88.9604 11.9827 89.3599 11.9601 89.7523 12.0152C90.1447 12.0703 90.5224 12.202 90.8639 12.4029C91.2053 12.6038 91.5038 12.8699 91.7423 13.186C91.9808 13.5022 92.1546 13.8621 92.2538 14.2453C92.353 14.6286 92.3757 15.0275 92.3206 15.4195C92.2654 15.8115 92.1335 16.1888 91.9324 16.5298C91.7313 16.8709 91.4648 17.169 91.1484 17.4073C90.8319 17.6455 90.4715 17.8191 90.0879 17.9182C89.7042 18.0173 89.3048 18.04 88.9124 17.9849C88.52 17.9298 88.1422 17.798 87.8008 17.5971C87.4594 17.3962 87.1609 17.1301 86.9224 16.814C86.6839 16.4979 86.5101 16.1379 86.4109 15.7547C86.3117 15.3715 86.289 14.9725 86.3441 14.5805C86.3993 14.1886 86.5312 13.8113 86.7323 13.4702C86.9334 13.1292 87.1998 12.831 87.5163 12.5928C87.8328 12.3546 88.1931 12.181 88.5768 12.0819Z" fill="var(--grey-12)"></path><path fill-rule="evenodd" clip-rule="evenodd" d="M75.8051 9.62731C75.0987 9.52815 74.3797 9.56893 73.6891 9.74732C72.9986 9.92571 72.3499 10.2382 71.7803 10.667C71.2106 11.0958 70.7311 11.6325 70.3691 12.2464C70.007 12.8603 69.7696 13.5394 69.6703 14.2449C69.5711 14.9505 69.6119 15.6687 69.7905 16.3585C69.9691 17.0483 70.2819 17.6962 70.7112 18.2652C71.1405 18.8342 71.6778 19.3132 72.2923 19.6748C72.9069 20.0364 73.5868 20.2736 74.2932 20.3727C74.9995 20.4719 75.7185 20.4311 76.4091 20.2527C77.0001 20.1001 77.5604 19.8492 78.0667 19.5112V20.4255H80.4808V9.57451H78.0667V10.4888C77.9814 10.4319 77.8945 10.3774 77.8059 10.3252C77.1913 9.96362 76.5114 9.72647 75.8051 9.62731ZM74.2936 12.0819C74.6772 11.9827 75.0767 11.9601 75.4691 12.0152C75.8615 12.0703 76.2392 12.202 76.5807 12.4029C76.9221 12.6038 77.2206 12.8699 77.4591 13.186C77.6976 13.5022 77.8714 13.8621 77.9706 14.2453C78.0698 14.6286 78.0925 15.0275 78.0373 15.4195C77.9822 15.8115 77.8503 16.1888 77.6492 16.5298C77.448 16.8709 77.1816 17.169 76.8651 17.4073C76.5487 17.6455 76.1883 17.8191 75.8047 17.9182C75.421 18.0173 75.0216 18.04 74.6292 17.9849C74.2367 17.9298 73.859 17.798 73.5176 17.5971C73.1761 17.3962 72.8777 17.1301 72.6392 16.814C72.4007 16.4979 72.2269 16.1379 72.1277 15.7547C72.0284 15.3715 72.0058 14.9725 72.0609 14.5805C72.1161 14.1886 72.248 13.8113 72.4491 13.4702C72.6502 13.1292 72.9166 12.831 73.2331 12.5928C73.5496 12.3546 73.9099 12.181 74.2936 12.0819Z" fill="var(--grey-12)"></path><path d="M130.442 9.57451C128.626 9.57451 127.153 11.0457 127.153 12.8604C127.153 14.5138 128.383 15.9097 130.025 16.1197L132.922 16.4902C133.304 16.5391 133.59 16.8642 133.59 17.2491C133.59 17.6717 133.247 18.0142 132.824 18.0142H127.756V20.4255H132.824C134.581 20.4255 136.004 19.0034 136.004 17.2491C136.004 15.6508 134.815 14.3014 133.228 14.0984L130.331 13.7279C129.894 13.672 129.567 13.3005 129.567 12.8604C129.567 12.3774 129.959 11.9858 130.442 11.9858H135.2V9.57451H130.442Z" fill="#12A594"></path><path d="M40.0452 12.8604C40.0452 11.0457 41.518 9.57451 43.3348 9.57451H48.0921V11.9858H43.3348C42.8512 11.9858 42.4592 12.3774 42.4592 12.8604C42.4592 13.3005 42.7866 13.672 43.2236 13.7279L46.1206 14.0984C47.7078 14.3014 48.8967 15.6508 48.8967 17.2491C48.8967 19.0034 47.473 20.4255 45.7167 20.4255H40.6487V18.0142H45.7167C46.1398 18.0142 46.4827 17.6717 46.4827 17.2491C46.4827 16.8642 46.1963 16.5391 45.814 16.4902L42.917 16.1197C41.2751 15.9097 40.0452 14.5138 40.0452 12.8604Z" fill="var(--grey-12)"></path><path d="M141.104 9.57451C139.288 9.57451 137.815 11.0457 137.815 12.8604C137.815 14.5138 139.045 15.9097 140.687 16.1197L143.584 16.4902C143.966 16.5391 144.252 16.8642 144.252 17.2491C144.252 17.6717 143.909 18.0142 143.486 18.0142H138.418V20.4255H143.486C145.243 20.4255 146.666 19.0034 146.666 17.2491C146.666 15.6508 145.477 14.3014 143.89 14.0984L140.993 13.7279C140.556 13.672 140.229 13.3005 140.229 12.8604C140.229 12.3774 140.621 11.9858 141.104 11.9858H145.862V9.57451H141.104Z" fill="#12A594"></path><path fill-rule="evenodd" clip-rule="evenodd" d="M96.3734 15.1005C96.3734 12.0486 98.8502 9.57451 101.906 9.57451H102.006C105.006 9.57451 107.438 12.0036 107.438 15C107.438 15.341 107.407 15.6758 107.349 16.0018L98.8908 16.0048C99.2289 17.2874 100.363 18.2151 101.807 18.2151C102.622 18.2151 103.203 18.1245 103.699 17.9468C104.192 17.7702 104.672 17.4821 105.25 16.9933L106.809 18.8341C106.08 19.4506 105.353 19.916 104.514 20.2166C103.678 20.5162 102.801 20.6265 101.807 20.6265C98.7083 20.6265 96.3734 18.1785 96.3734 15.1965V15.1005ZM99.074 13.7944C99.5685 12.7266 100.65 11.9858 101.906 11.9858H102.006C103.244 11.9858 104.307 12.7298 104.773 13.7944H99.074Z" fill="var(--grey-12)"></path><path fill-rule="evenodd" clip-rule="evenodd" d="M114.278 15.1005C114.278 12.0486 116.755 9.57451 119.81 9.57451H119.91C122.91 9.57451 125.342 12.0036 125.342 15C125.342 15.341 125.312 15.6758 125.253 16.0018L116.795 16.0048C117.133 17.2874 118.267 18.2151 119.712 18.2151C120.526 18.2151 121.107 18.1245 121.603 17.9468C122.096 17.7702 122.576 17.4821 123.154 16.9933L124.714 18.8341C123.984 19.4506 123.257 19.916 122.418 20.2166C121.582 20.5162 120.706 20.6265 119.712 20.6265C116.613 20.6265 114.278 18.1785 114.278 15.1965V15.1005ZM116.978 13.7944H122.677C122.211 12.7298 121.148 11.9858 119.91 11.9858H119.81C118.555 11.9858 117.473 12.7266 116.978 13.7944Z" fill="#12A594"></path></svg>
